<mxfile host="app.diagrams.net" modified="2020-11-17T12:33:15.236Z" agent="5.0 (Macintosh; Intel Mac OS X 10_15_7) AppleWebKit/537.36 (KHTML, like Gecko) Chrome/86.0.4240.198 Safari/537.36" etag="t-XyPTrf02WvpUIXSe45" version="13.9.9" type="github">
  <diagram id="qtpSeN9C5mQhFsL6DWO7" name="Page-1">
    <mxGraphModel dx="938" dy="623" grid="1" gridSize="10" guides="1" tooltips="1" connect="1" arrows="1" fold="1" page="1" pageScale="1" pageWidth="827" pageHeight="1169" math="0" shadow="0">
      <root>
        <mxCell id="0" />
        <mxCell id="1" parent="0" />
        <mxCell id="lTj7CUN2yAYBY1FirzTV-3" value="Klant" style="swimlane;html=1;horizontal=0;startSize=20;" vertex="1" parent="1">
          <mxGeometry x="140" y="110" width="600" height="430" as="geometry" />
        </mxCell>
        <mxCell id="lTj7CUN2yAYBY1FirzTV-7" value="Betalingsverzoek&lt;br&gt;gedaan" style="shape=mxgraph.bpmn.shape;html=1;verticalLabelPosition=bottom;labelBackgroundColor=#ffffff;verticalAlign=top;align=center;perimeter=ellipsePerimeter;outlineConnect=0;outline=standard;symbol=general;" vertex="1" parent="lTj7CUN2yAYBY1FirzTV-3">
          <mxGeometry x="90" y="180" width="50" height="50" as="geometry" />
        </mxCell>
        <mxCell id="lTj7CUN2yAYBY1FirzTV-17" style="edgeStyle=orthogonalEdgeStyle;rounded=0;orthogonalLoop=1;jettySize=auto;html=1;exitX=0.5;exitY=1;exitDx=0;exitDy=0;entryX=0;entryY=0.5;entryDx=0;entryDy=0;" edge="1" parent="lTj7CUN2yAYBY1FirzTV-3" source="lTj7CUN2yAYBY1FirzTV-8" target="lTj7CUN2yAYBY1FirzTV-12">
          <mxGeometry relative="1" as="geometry" />
        </mxCell>
        <mxCell id="lTj7CUN2yAYBY1FirzTV-19" value="JA" style="edgeLabel;html=1;align=center;verticalAlign=middle;resizable=0;points=[];" vertex="1" connectable="0" parent="lTj7CUN2yAYBY1FirzTV-17">
          <mxGeometry x="-0.0979" y="-1" relative="1" as="geometry">
            <mxPoint as="offset" />
          </mxGeometry>
        </mxCell>
        <mxCell id="lTj7CUN2yAYBY1FirzTV-8" value="Is het betalingsverzoek&lt;br&gt;akkoord?" style="shape=mxgraph.bpmn.shape;html=1;verticalLabelPosition=bottom;labelBackgroundColor=#ffffff;verticalAlign=top;align=center;perimeter=rhombusPerimeter;background=gateway;outlineConnect=0;outline=none;symbol=exclusiveGw;" vertex="1" parent="lTj7CUN2yAYBY1FirzTV-3">
          <mxGeometry x="220" y="180" width="50" height="50" as="geometry" />
        </mxCell>
        <mxCell id="lTj7CUN2yAYBY1FirzTV-10" value="Foutmelden" style="shape=ext;rounded=1;html=1;whiteSpace=wrap;" vertex="1" parent="lTj7CUN2yAYBY1FirzTV-3">
          <mxGeometry x="390" y="60" width="120" height="70" as="geometry" />
        </mxCell>
        <mxCell id="lTj7CUN2yAYBY1FirzTV-11" value="Afbreken" style="shape=ext;rounded=1;html=1;whiteSpace=wrap;" vertex="1" parent="lTj7CUN2yAYBY1FirzTV-3">
          <mxGeometry x="390" y="165" width="120" height="80" as="geometry" />
        </mxCell>
        <mxCell id="lTj7CUN2yAYBY1FirzTV-12" value="Akkoord" style="shape=ext;rounded=1;html=1;whiteSpace=wrap;" vertex="1" parent="lTj7CUN2yAYBY1FirzTV-3">
          <mxGeometry x="390" y="280" width="120" height="80" as="geometry" />
        </mxCell>
        <mxCell id="lTj7CUN2yAYBY1FirzTV-13" value="NEE" style="endArrow=block;endFill=1;endSize=6;html=1;exitX=0.5;exitY=0;exitDx=0;exitDy=0;entryX=0;entryY=0.5;entryDx=0;entryDy=0;" edge="1" parent="lTj7CUN2yAYBY1FirzTV-3" source="lTj7CUN2yAYBY1FirzTV-8" target="lTj7CUN2yAYBY1FirzTV-10">
          <mxGeometry width="100" relative="1" as="geometry">
            <mxPoint x="290" y="210" as="sourcePoint" />
            <mxPoint x="390" y="210" as="targetPoint" />
            <Array as="points">
              <mxPoint x="245" y="95" />
            </Array>
          </mxGeometry>
        </mxCell>
        <mxCell id="lTj7CUN2yAYBY1FirzTV-14" value="" style="endArrow=block;endFill=1;endSize=6;html=1;entryX=0;entryY=0.5;entryDx=0;entryDy=0;" edge="1" parent="lTj7CUN2yAYBY1FirzTV-3" target="lTj7CUN2yAYBY1FirzTV-11">
          <mxGeometry width="100" relative="1" as="geometry">
            <mxPoint x="270" y="204.5" as="sourcePoint" />
            <mxPoint x="320" y="205" as="targetPoint" />
          </mxGeometry>
        </mxCell>
        <mxCell id="lTj7CUN2yAYBY1FirzTV-18" value="Te vaak geprobeerd" style="edgeLabel;html=1;align=center;verticalAlign=middle;resizable=0;points=[];" vertex="1" connectable="0" parent="lTj7CUN2yAYBY1FirzTV-14">
          <mxGeometry x="-0.3666" relative="1" as="geometry">
            <mxPoint as="offset" />
          </mxGeometry>
        </mxCell>
        <mxCell id="lTj7CUN2yAYBY1FirzTV-9" value="" style="endArrow=block;endFill=1;endSize=6;html=1;exitX=1;exitY=0.5;exitDx=0;exitDy=0;" edge="1" parent="lTj7CUN2yAYBY1FirzTV-3" source="lTj7CUN2yAYBY1FirzTV-7" target="lTj7CUN2yAYBY1FirzTV-8">
          <mxGeometry width="100" relative="1" as="geometry">
            <mxPoint x="100" y="180" as="sourcePoint" />
            <mxPoint x="160" y="205" as="targetPoint" />
          </mxGeometry>
        </mxCell>
      </root>
    </mxGraphModel>
  </diagram>
</mxfile>
